<?xml version="1.0" encoding="UTF-8"?><svg id="Layer_2" xmlns="http://www.w3.org/2000/svg" viewBox="0 0 1019.56 296.56"><defs><style>.cls-1{stroke:#9df6dd;stroke-miterlimit:10;stroke-width:4px;}.cls-1,.cls-2,.cls-3{fill:#191919;}.cls-4{fill:#9df6dd;}.cls-5,.cls-6{fill:#9df6dd;}.cls-6,.cls-2{font-family:Jalnan2-KSCpc-EUC-H, 'Jalnan 2';font-size:222.79px;}</style></defs><g id="Layer_1-2"><rect class="cls-1" x="2" y="2" width="1015.56" height="292.56" rx="32.14" ry="32.14"/><rect class="cls-5" x="16.21" y="18" width="987.13" height="260.56" rx="32.14" ry="32.14"/><path class="cls-3" d="M500.56,275.06V21.5h470.64c15.79,0,28.64,12.85,28.64,28.64v196.27c0,15.79-12.85,28.64-28.64,28.64h-470.64Z"/><path class="cls-4" d="M971.2,25c13.86,0,25.14,11.28,25.14,25.14v196.27c0,13.86-11.28,25.14-25.14,25.14h-467.14V25h467.14M971.2,18h-474.14v260.56h474.14c17.75,0,32.14-14.39,32.14-32.14V50.14c0-17.75-14.39-32.14-32.14-32.14h0Z"/><text class="cls-2" transform="translate(44.41 230.73)"><tspan x="0" y="0">min</tspan></text><text class="cls-6" transform="translate(533.9 232.64)"><tspan x="0" y="0">cho</tspan></text></g></svg>